<svg width="36" height="43" viewBox="0 0 36 43" fill="none" xmlns="http://www.w3.org/2000/svg">
<path d="M0 18.35V42C0 42.5523 0.447715 43 1 43H12.012C12.5643 43 13.012 42.5523 13.012 42V33.8442C13.012 33.2919 13.4598 32.8442 14.012 32.8442H23.0723C23.6246 32.8442 24.0723 33.2919 24.0723 33.8442V42C24.0723 42.5523 24.52 43 25.0723 43H35C35.5523 43 36 42.5523 36 42V18.35C36 18.0841 35.8941 17.8292 35.7058 17.6416L18.7058 0.703258C18.3156 0.314447 17.6844 0.314447 17.2942 0.703258L0.29418 17.6416C0.105857 17.8292 0 18.0841 0 18.35Z" fill="#555555"/>
</svg>
