<svg width="28" height="28" viewBox="0 0 28 28" fill="none" xmlns="http://www.w3.org/2000/svg">
<path d="M11.0375 2.99477L11.0352 0.333277C11.0352 0.148911 11.1857 0 11.372 0H16.3652C16.5515 0 16.702 0.148911 16.702 0.333277V2.9924C16.702 3.13895 16.7976 3.26659 16.9386 3.30913L19.7816 4.18133C19.9058 4.21915 20.0396 4.18369 20.128 4.08914L21.9819 2.11312C22.1085 1.97839 22.3212 1.9713 22.4573 2.09657L26.1174 5.45771C26.2536 5.58298 26.2608 5.79335 26.1341 5.92808L24.2515 7.93483C24.1799 8.01283 24.1488 8.1192 24.1679 8.22083L24.6768 10.9249C24.7055 11.0832 24.844 11.1967 25.0065 11.1967H27.6631C27.8495 11.1967 28 11.3456 28 11.53V16.47C28 16.6544 27.8495 16.8033 27.6631 16.8033H25.0065C24.844 16.8033 24.7055 16.9168 24.6768 17.0751L24.1679 19.7792C24.1488 19.8832 24.1799 19.9895 24.2515 20.0652L26.1341 22.0719C26.2608 22.2067 26.2512 22.417 26.1174 22.5423L22.4573 25.9034C22.3212 26.0287 22.1085 26.0192 21.9819 25.8869L20.128 23.9109C20.0396 23.8163 19.9058 23.7809 19.7816 23.8187L16.9386 24.6909C16.7976 24.7334 16.702 24.8634 16.702 25.0076V27.6667C16.702 27.8511 16.5515 28 16.3652 28H11.372C11.1857 28 11.0352 27.8511 11.0352 27.6667V25.0005C11.0352 24.8587 10.9444 24.731 10.8058 24.6861L8.21843 23.8234C8.0942 23.7809 7.95563 23.8163 7.86485 23.9132L6.0157 25.8845C5.88908 26.0193 5.67645 26.0263 5.54027 25.9011L1.8802 22.5399C1.74403 22.4147 1.73686 22.2043 1.86348 22.0696L3.74608 20.0628C3.81775 19.9848 3.84881 19.8784 3.82969 19.7768L3.32082 17.0728C3.29215 16.9144 3.15358 16.8009 2.99113 16.8009H0.33686C0.150512 16.8009 0 16.652 0 16.4677V11.5276C0 11.3432 0.150512 11.1943 0.33686 11.1943H2.99352C3.15597 11.1943 3.29454 11.0809 3.32321 10.9225L3.83208 8.21847C3.85119 8.11447 3.82014 8.00811 3.74846 7.93247L1.86587 5.92571C1.73925 5.79098 1.74881 5.58062 1.88259 5.45534L5.54266 2.09421C5.67884 1.96893 5.89147 1.97839 6.01809 2.11075L7.86724 4.08205C7.95802 4.17896 8.0942 4.21205 8.22082 4.17187L10.8082 3.30913C10.9444 3.26422 11.0375 3.13659 11.0375 2.99477Z" fill="#555555"/>
<path d="M14 20C17.3137 20 20 17.3137 20 14C20 10.6863 17.3137 8 14 8C10.6863 8 8 10.6863 8 14C8 17.3137 10.6863 20 14 20Z" fill="#F5F5F5"/>
</svg>
