<svg width="23" height="23" viewBox="0 0 23 23" fill="none" xmlns="http://www.w3.org/2000/svg">
<circle cx="11.5" cy="11.5" r="10.5" stroke="#F5F5F5" stroke-width="2"/>
<path d="M12.6136 17C11.6554 17 10.835 16.7629 10.1525 16.2887C9.47458 15.8096 8.9548 15.1569 8.59322 14.3307C8.23164 13.4996 8.05085 12.556 8.05085 11.5C8.07345 10.3951 8.26554 9.432 8.62712 8.61067C8.9887 7.78444 9.50395 7.144 10.1729 6.68933C10.8463 6.22978 11.6599 6 12.6136 6C13.0475 6 13.4655 6.05622 13.8678 6.16867C14.2746 6.27622 14.6497 6.44244 14.9932 6.66733L14.3492 7.76C14.096 7.58889 13.8203 7.46178 13.522 7.37867C13.2282 7.29067 12.9254 7.24667 12.6136 7.24667C11.8859 7.24178 11.2802 7.42022 10.7966 7.782C10.313 8.13889 9.94915 8.64 9.70508 9.28533C9.46554 9.92578 9.3435 10.664 9.33898 11.5C9.3435 12.3507 9.4678 13.0962 9.71186 13.7367C9.95593 14.3722 10.3198 14.8684 10.8034 15.2253C11.287 15.5773 11.8904 15.7533 12.6136 15.7533C13.2508 15.768 13.8339 15.5993 14.3627 15.2473L15 16.3253C14.652 16.5502 14.2746 16.7189 13.8678 16.8313C13.461 16.9438 13.0429 17 12.6136 17ZM7 13.2453V12.1673H13.2305V13.2453H7ZM7 10.8547V9.77667H13.2305V10.8547H7Z" fill="white"/>
</svg>
