<svg width="21" height="27" viewBox="0 0 21 27" fill="none" xmlns="http://www.w3.org/2000/svg">
<path d="M10.3448 15.5172C14.6298 15.5172 18.1034 12.0436 18.1034 7.75862C18.1034 3.47365 14.6298 0 10.3448 0C6.05983 0 2.58618 3.47365 2.58618 7.75862C2.58618 12.0436 6.05983 15.5172 10.3448 15.5172Z" fill="#F5F5F5"/>
<path d="M10.3448 15.5172C14.6298 15.5172 18.1034 12.0436 18.1034 7.75862C18.1034 3.47365 14.6298 0 10.3448 0C6.05983 0 2.58618 3.47365 2.58618 7.75862C2.58618 12.0436 6.05983 15.5172 10.3448 15.5172Z" fill="#F5F5F5"/>
<path d="M10.3448 15.5172C14.6298 15.5172 18.1034 12.0436 18.1034 7.75862C18.1034 3.47365 14.6298 0 10.3448 0C6.05983 0 2.58618 3.47365 2.58618 7.75862C2.58618 12.0436 6.05983 15.5172 10.3448 15.5172Z" fill="#D9D9D9"/>
<path d="M0 26.5602C0 20.7585 4.69828 16.0602 10.5 16.0602C16.3017 16.0602 21 20.7585 21 26.5602H0Z" fill="#F5F5F5"/>
<path d="M0 26.5602C0 20.7585 4.69828 16.0602 10.5 16.0602C16.3017 16.0602 21 20.7585 21 26.5602H0Z" fill="#F5F5F5"/>
<path d="M0 26.5602C0 20.7585 4.69828 16.0602 10.5 16.0602C16.3017 16.0602 21 20.7585 21 26.5602H0Z" fill="#D9D9D9"/>
</svg>
