<svg width="34" height="44" viewBox="0 0 34 44" fill="none" xmlns="http://www.w3.org/2000/svg">
<path d="M16.7633 25.312C23.2928 25.312 28.586 20.0188 28.586 13.4893C28.586 6.95987 23.2928 1.66669 16.7633 1.66669C10.2339 1.66669 4.94067 6.95987 4.94067 13.4893C4.94067 20.0188 10.2339 25.312 16.7633 25.312Z" fill="white"/>
<path d="M16.7633 25.312C23.2928 25.312 28.586 20.0188 28.586 13.4893C28.586 6.95987 23.2928 1.66669 16.7633 1.66669C10.2339 1.66669 4.94067 6.95987 4.94067 13.4893C4.94067 20.0188 10.2339 25.312 16.7633 25.312Z" fill="#555555"/>
<path d="M16.7633 25.312C23.2928 25.312 28.586 20.0188 28.586 13.4893C28.586 6.95987 23.2928 1.66669 16.7633 1.66669C10.2339 1.66669 4.94067 6.95987 4.94067 13.4893C4.94067 20.0188 10.2339 25.312 16.7633 25.312Z" fill="#555555"/>
<path d="M16.7633 25.312C23.2928 25.312 28.586 20.0188 28.586 13.4893C28.586 6.95987 23.2928 1.66669 16.7633 1.66669C10.2339 1.66669 4.94067 6.95987 4.94067 13.4893C4.94067 20.0188 10.2339 25.312 16.7633 25.312Z" stroke="#555555" stroke-width="2" stroke-linecap="round" stroke-linejoin="round"/>
<path d="M1.00012 42.1394C1.00012 33.2987 8.1594 26.1394 17.0001 26.1394C25.8408 26.1394 33.0001 33.2987 33.0001 42.1394H1.00012Z" fill="white"/>
<path d="M1.00012 42.1394C1.00012 33.2987 8.1594 26.1394 17.0001 26.1394C25.8408 26.1394 33.0001 33.2987 33.0001 42.1394H1.00012Z" fill="#555555"/>
<path d="M1.00012 42.1394C1.00012 33.2987 8.1594 26.1394 17.0001 26.1394C25.8408 26.1394 33.0001 33.2987 33.0001 42.1394H1.00012Z" fill="#555555"/>
<path d="M1.00012 42.1394C1.00012 33.2987 8.1594 26.1394 17.0001 26.1394C25.8408 26.1394 33.0001 33.2987 33.0001 42.1394H1.00012Z" stroke="#555555" stroke-width="2" stroke-linecap="round" stroke-linejoin="round"/>
</svg>
